<svg xmlns="http://www.w3.org/2000/svg" viewBox="0 0 760 111" enable-background="new 0 0 760 111"><style type="text/css">.st0{fill:#0099FF;}</style><path class="st0" d="M29.3 95.6c-.9 0-1.7.2-2.5.5-.6.3-1.2.7-1.7 1.2-1.2 1.2-1.8 2.5-1.8 4.1 0 1.7.6 3.1 1.8 4.2v.1c.5.5 1.1.9 1.7 1.1.8.4 1.6.5 2.5.5h80.8c1.6 0 3-.6 4.2-1.7 1.1-1.1 1.6-2.5 1.6-4.2 0-1.6-.5-3-1.6-4.1-1.2-1.2-2.6-1.8-4.2-1.8h-80.8m85.1-8.4c1-1.2 1.5-2.6 1.5-4.1 0-1.7-.5-3-1.6-4.1 0 0-.1 0-.1-.1-1.2-1.1-2.6-1.7-4.1-1.7h-43.8c-1.6 0-2.9.6-4 1.8l-.1.1c-1.2 1-1.9 2.4-1.9 4s.6 3.1 1.9 4.3c1.1 1.1 2.4 1.7 4.1 1.7h43.8c1.6-.1 3-.7 4.3-1.9m-.1-26.9c-1.2-1.1-2.6-1.7-4.2-1.7h-73.4c-1.7 0-3.1.6-4.2 1.7-1.2 1.1-1.8 2.5-1.8 4.2 0 1.6.5 3 1.6 4.1.1 0 .1.1.1.1 1.1 1.2 2.5 1.8 4.1 1.8h73.4c1.6 0 3-.6 4.2-1.8 1.1-1.1 1.6-2.5 1.6-4.2.3-1.7-.3-3.1-1.4-4.2m0-18.5c-1.2-1.2-2.6-1.8-4.2-1.8h-62.5c-1.6 0-2.9.6-4 1.7 0 .1-.1.1-.1.1-1.2 1.1-1.8 2.5-1.8 4.1 0 1.7.6 3.1 1.8 4.2 1.1 1.1 2.5 1.6 4.1 1.6h62.5c1.6 0 3-.5 4.2-1.6 1.1-1.1 1.6-2.5 1.6-4.2.1-1.6-.5-3-1.6-4.1m0-18.5c-1.2-1.2-2.6-1.8-4.2-1.8h-28.8c-1.6 0-3 .6-4.1 1.7v.1c-1.2 1.1-1.8 2.4-1.8 4.1 0 1.7.6 3.1 1.8 4.3 1.2 1.1 2.6 1.6 4.2 1.6h28.8c1.6 0 2.9-.5 4.1-1.5l.1-.1c1.1-1.2 1.7-2.6 1.7-4.3-.1-1.7-.7-3-1.8-4.1m-4.2-8.5c1.6 0 3-.6 4.2-1.7l.1-.1c1-1.2 1.5-2.5 1.5-4.1 0-1.6-.5-3-1.6-4.1-1.2-1.2-2.6-1.9-4.2-1.9h-19.2c-1.7 0-3 .6-4 1.8l-.1.1c-1.3 1.1-1.9 2.4-1.9 4.1 0 1.6.7 3 2 4.2l.1.1c1 1.1 2.3 1.6 4 1.6h19.1m94.5 54.4c0-7.8-1.3-14.5-3.9-20.1-2.7-5.6-6.3-9.9-10.9-12.8-4.8-3-10.3-4.4-16.6-4.4-5.4 0-9.9 1-13.5 3-3.6 1.9-7.2 4.6-10.7 8.3v-28.6c0-3.5-.8-6.2-2.5-8-1.5-1.9-3.8-2.8-6.7-2.8-2.7 0-4.8.9-6.4 2.8-1.5 2-2.2 4.9-2.2 8.6v82.2c0 3.5.7 6.2 2.2 8.1 1.7 1.8 3.8 2.7 6.4 2.7 2.7 0 4.8-.9 6.5-2.7 1.8-1.9 2.7-4.6 2.7-8.1v-2l4.9 5.5 4.6 3.5c1.8 1 4 1.9 6.5 2.6 2.5.7 5.2 1.1 8.1 1.1 4.7 0 9.1-1 13.1-2.9 3.9-2 7.2-4.7 9.9-8.1 2.8-3.5 4.9-7.6 6.3-12.4 1.4-4.6 2.2-9.8 2.2-15.5m-21.2-12.2c1.5 3.5 2.3 7.8 2.3 12.7 0 7.6-1.7 13.6-5.1 17.8-3.5 4-7.6 6-12.4 6-5.5 0-10-2-13.4-6-3.4-4-5.1-9.8-5.1-17.3 0-5.1.8-9.4 2.3-13.1 1.7-3.8 3.9-6.6 6.7-8.4 2.8-2 6-3 9.5-3s6.6 1 9.2 3c2.6 1.9 4.6 4.7 6 8.3m100.1-8.8c-2.6-4.9-6.5-8.9-11.6-12-5.3-3.2-11.7-4.8-19.1-4.8-5.6 0-10.7.9-15.3 2.8-4.7 1.7-8.6 4.3-11.8 7.7-3.2 3.4-5.6 7.5-7.2 12.4-1.7 4.7-2.5 9.8-2.5 15.4 0 11.9 3.3 21.2 10 28 6.7 6.9 16.2 10.4 28.2 10.4 5.3 0 10-.7 14.1-2.1 4-1.4 7.3-3.1 10-5.1 2.7-2.1 4.7-4.3 6-6.5 1.3-2.4 2-4.3 2-6 0-2-.6-3.6-1.8-4.6-1.2-1.1-2.7-1.6-4.6-1.6-1.9 0-3.3.4-4.2 1.2l-10.5 9c-1.7 1-3.4 1.8-5.3 2.5-1.9.4-4 .7-6.2.7-3.4 0-6.5-.8-9.2-2.5-2.8-1.6-5.1-4.1-6.7-7.4-1.6-3.3-2.5-7.1-2.6-11.3h36.8c5 0 8.8-.7 11.5-2.1 2.7-1.4 4.1-4.5 4.1-9.2 0-4.9-1.4-9.9-4.1-14.9m-19.4 1.3c3.1 3.2 4.8 8 5.3 14.5h-34.2c.7-6.4 2.5-11.2 5.5-14.5 3.1-3.2 6.9-4.8 11.6-4.8 4.8 0 8.8 1.6 11.8 4.8m71.4-4.8c5.6 0 9.3 1.2 11.1 3.5 1.8 2.2 2.8 5.8 3 10.7l-32.1 7.4c-5.7 1.3-10.1 3.8-13.4 7.4-3.3 3.6-4.9 8-4.9 13 0 3.9 1 7.5 3 10.8 2 3.2 4.8 5.8 8.4 7.7 3.7 1.9 7.9 2.9 12.7 2.9 5.3 0 10-.9 14.3-2.7 4.2-1.7 8.6-4.4 13.2-7.9 2.1 3.4 4.1 6 6 7.9 1.9 1.8 3.8 2.7 5.7 2.7 2.3 0 4.4-.8 6.2-2.5 1.7-1.6 2.6-3.3 2.6-5.3l-1.5-7.2c-1.3-3.9-2-7.6-2-11.1l.2-21.5c0-7.1-1-12.7-2.9-16.8-2-4.2-5.4-7.3-10.1-9.3-4.7-2-11.2-3-19.6-3-7.4 0-13.6 1-18.5 3.1-4.9 2-8.6 4.5-10.9 7.6-2.4 3.2-3.5 6.4-3.5 9.7 0 2.1.8 3.8 2.3 5.2 1.5 1.3 3.4 2 5.5 2 2.3 0 3.8-.4 4.6-1.2l3.7-5.3c1.7-2.7 3.8-4.7 6.2-6 2.5-1.1 6-1.8 10.7-1.8m11.5 42.3c-1.4 2.6-3.7 4.7-6.9 6.3-3.2 1.7-6.6 2.5-10.4 2.5-3.4 0-6.2-1-8.4-3-2.1-2-3.2-4.4-3.2-7.2s.9-5 2.8-6.5c1.8-1.6 3.7-2.6 5.8-3.1l22.9-5.8v2.9c0 6.4-.8 11.1-2.6 13.9m146.5-27.5c0-7.3-.8-12.6-2.3-16-1.8-3.8-4.7-6.6-8.4-8.6-3.6-2-8-3-13.2-3-4.4 0-8.3.9-12 2.8-3.7 1.9-7.1 4.7-10.3 8.5-2.2-3.8-5.1-6.6-8.5-8.5-3.4-1.9-7.4-2.8-12.2-2.8-4.6 0-8.7.9-12.4 2.8-3.8 1.7-7.3 4.6-10.6 8.5v-1.8c0-3.1-.8-5.4-2.4-7.1-1.8-1.8-4-2.7-6.6-2.7-2.6 0-4.7 1-6.3 2.9-1.7 1.7-2.5 4.4-2.5 8.1v53.8c0 3.9.9 6.8 2.7 8.8 1.9 2 4.2 3 7.1 3 2.9 0 5.3-1 7.1-3 1.7-2 2.6-4.9 2.6-8.8v-25.6c0-7.9.9-13.9 2.8-18.2 2-4.2 6.1-6.3 12.2-6.3 3.1 0 5.3.9 6.7 2.7 1.5 1.6 2.4 3.7 2.7 6.3l.5 41.1c0 3.9.9 6.8 2.7 8.8 1.8 2 4.1 3 6.9 3 2.9 0 5.3-1 7.2-3 1.7-2 2.6-4.9 2.6-8.8v-25c0-8.1.7-13.8 2-16.9 1.3-2.5 3.1-4.4 5.3-5.8 2.2-1.5 4.6-2.3 7-2.3 3.1 0 5.4.8 6.9 2.5s2.4 3.8 2.8 6.2l.6 41.4c0 3.9.9 6.8 2.6 8.8 1.9 2 4.2 3 7.1 3 3 0 5.3-1 7.1-3s2.6-4.9 2.6-8.8v-37m121.5 30.9c-2.1-2-4.5-3-7.3-3-3 0-5.4 1-7.4 3-2 2.1-3 4.5-3 7.2 0 3.4 1 6 3.1 7.7 2.1 1.9 4.6 2.9 7.4 2.9 2.7 0 5.1-1 7.2-2.9 2-1.9 3.1-4.5 3.1-7.7-.1-2.8-1.1-5.2-3.1-7.2m-39.4-42.2c-2.6-4.9-6.5-8.9-11.6-12-5.3-3.2-11.6-4.8-19-4.8-5.7 0-10.8.9-15.4 2.8-4.7 1.7-8.6 4.3-11.8 7.7-3.1 3.4-5.5 7.5-7.2 12.4-1.7 4.7-2.5 9.8-2.5 15.4 0 11.9 3.4 21.2 10.1 28 6.7 6.9 16.1 10.4 28.2 10.4 5.3 0 10-.7 14.1-2.1 4-1.4 7.4-3.1 10.1-5.1 2.7-2.1 4.7-4.3 6-6.5 1.3-2.4 2-4.3 2-6 0-2-.6-3.6-1.8-4.6-1.2-1.1-2.7-1.6-4.6-1.6-1.9 0-3.3.4-4.2 1.2l-10.5 9c-1.7 1-3.4 1.8-5.3 2.5-1.8.4-3.9.7-6.2.7-3.4 0-6.5-.8-9.2-2.5-2.8-1.6-5.1-4.1-6.7-7.4-1.7-3.3-2.6-7.1-2.7-11.3h36.9c4.9 0 8.7-.7 11.4-2.1 2.7-1.4 4.1-4.5 4.1-9.2-.2-4.9-1.5-9.9-4.2-14.9m-48.4 15.7c.7-6.4 2.6-11.2 5.5-14.5 3.1-3.2 6.9-4.8 11.6-4.8 4.8 0 8.8 1.6 11.8 4.8 3.1 3.2 4.8 8 5.3 14.5h-34.2m121.5-32.2c-2.8 0-5.1 1-6.7 2.9-1.7 1.8-2.6 4.7-2.6 8.4v53.7c0 3.7.9 6.5 2.6 8.5 1.7 2 3.9 3 6.7 3 2.7 0 4.9-1 6.7-3 1.9-1.9 2.9-4.7 2.9-8.5v-54.3c0-3.4-1-6.1-2.9-7.9-1.8-1.9-4-2.8-6.7-2.8m9.6-18c0-2.9-1-5.2-2.9-6.7-1.9-1.7-4-2.5-6.5-2.5s-4.7.9-6.7 2.7c-1.9 1.7-2.8 3.9-2.8 6.5 0 2.9.9 5.2 2.8 6.9 1.9 1.7 4.1 2.5 6.7 2.5 2.4 0 4.6-.8 6.5-2.5 1.9-1.7 2.9-4 2.9-6.9m79.5 28.5c-3.3-3.4-7.3-6-12-7.7-4.6-1.9-9.7-2.9-15.5-2.9-5.5 0-10.7 1-15.4 2.9-4.6 1.7-8.5 4.3-11.8 7.7-3.3 3.3-5.7 7.3-7.3 12-1.8 4.8-2.7 10-2.7 15.6 0 5.7.9 10.8 2.7 15.5 1.6 4.6 4.1 8.7 7.5 12.2 3.3 3.4 7.2 6 11.6 7.7 4.6 1.9 9.7 2.9 15.4 2.9 5.8 0 10.9-.9 15.5-2.7 4.6-1.9 8.5-4.5 11.8-7.9 3.4-3.4 6-7.5 7.6-12.2 1.7-4.7 2.6-9.8 2.6-15.5 0-5.6-.8-10.8-2.5-15.5-1.7-4.6-4.2-8.6-7.5-12.1m-8.9 27.7c0 7.5-1.7 13.5-5 17.8-3.4 4.2-8 6.3-13.7 6.3-3.8 0-7-.9-9.7-2.8-2.8-2-4.9-4.8-6.3-8.5-1.5-3.6-2.2-7.9-2.2-12.9s.7-9.3 2.2-13c1.6-3.7 3.7-6.5 6.3-8.5 2.9-1.8 6.1-2.8 9.7-2.8 5.8 0 10.3 2.1 13.7 6.3 3.4 4.5 5 10.5 5 18.1z" id="Layer0_0_FILL"/></svg>