<?xml version="1.0" encoding="UTF-8"?>
<svg width="120px" height="18px" viewBox="0 0 120 18" version="1.1" xmlns="http://www.w3.org/2000/svg" xmlns:xlink="http://www.w3.org/1999/xlink">
    <!-- Generator: Sketch 44 (41411) - http://www.bohemiancoding.com/sketch -->
    <title>beame-logo</title>
    <desc>Created with Sketch.</desc>
    <defs></defs>
    <g id="Page-1" stroke="none" stroke-width="1" fill="none" fill-rule="evenodd">
        <g id="beame-logo" fill-rule="nonzero" fill="#FFFFFF">
            <path d="M1.04275862,15.4924138 C0.893793103,15.4924138 0.76137931,15.5255172 0.628965517,15.5751724 C0.529655172,15.6248276 0.430344828,15.6910345 0.347586207,15.7737931 C0.148965517,15.9724138 0.0496551724,16.1875862 0.0496551724,16.4524138 C0.0496551724,16.7337931 0.148965517,16.9655172 0.347586207,17.1475862 L0.347586207,17.1641379 C0.430344828,17.2468966 0.529655172,17.3131034 0.628965517,17.3462069 C0.76137931,17.4124138 0.893793103,17.4289655 1.04275862,17.4289655 L14.4165517,17.4289655 C14.6813793,17.4289655 14.9131034,17.3296552 15.1117241,17.1475862 C15.2937931,16.9655172 15.3765517,16.7337931 15.3765517,16.4524138 C15.3765517,16.1875862 15.2937931,15.9558621 15.1117241,15.7737931 C14.9131034,15.5751724 14.6813793,15.4758621 14.4165517,15.4758621 L1.04275862,15.4758621 L1.04275862,15.4924138 Z M15.1282759,14.0855172 C15.2937931,13.8868966 15.3765517,13.6551724 15.3765517,13.4068966 C15.3765517,13.1255172 15.2937931,12.9103448 15.1117241,12.7282759 C15.1117241,12.7282759 15.0951724,12.7282759 15.0951724,12.7117241 C14.8965517,12.5296552 14.6648276,12.4303448 14.4165517,12.4303448 L7.16689655,12.4303448 C6.90206897,12.4303448 6.68689655,12.5296552 6.50482759,12.7282759 L6.48827586,12.7448276 C6.28965517,12.9103448 6.1737931,13.142069 6.1737931,13.4068966 C6.1737931,13.6717241 6.27310345,13.92 6.48827586,14.1186207 C6.67034483,14.3006897 6.88551724,14.4 7.16689655,14.4 L14.4165517,14.4 C14.6813793,14.3834483 14.9131034,14.2841379 15.1282759,14.0855172 L15.1282759,14.0855172 Z M15.1117241,9.63310345 C14.9131034,9.45103448 14.6813793,9.35172414 14.4165517,9.35172414 L2.26758621,9.35172414 C1.9862069,9.35172414 1.75448276,9.45103448 1.57241379,9.63310345 C1.3737931,9.81517241 1.27448276,10.0468966 1.27448276,10.3282759 C1.27448276,10.5931034 1.35724138,10.8248276 1.53931034,11.0068966 C1.55586207,11.0068966 1.55586207,11.0234483 1.55586207,11.0234483 C1.73793103,11.222069 1.96965517,11.3213793 2.23448276,11.3213793 L14.3834483,11.3213793 C14.6482759,11.3213793 14.88,11.222069 15.0786207,11.0234483 C15.2606897,10.8413793 15.3434483,10.6096552 15.3434483,10.3282759 C15.3931034,10.0468966 15.2937931,9.81517241 15.1117241,9.63310345 L15.1117241,9.63310345 Z M15.1117241,6.57103448 C14.9131034,6.37241379 14.6813793,6.27310345 14.4165517,6.27310345 L4.07172414,6.27310345 C3.80689655,6.27310345 3.59172414,6.37241379 3.40965517,6.55448276 C3.40965517,6.57103448 3.39310345,6.57103448 3.39310345,6.57103448 C3.19448276,6.75310345 3.09517241,6.98482759 3.09517241,7.24965517 C3.09517241,7.53103448 3.19448276,7.76275862 3.39310345,7.94482759 C3.57517241,8.12689655 3.80689655,8.20965517 4.07172414,8.20965517 L14.4165517,8.20965517 C14.6813793,8.20965517 14.9131034,8.12689655 15.1117241,7.94482759 C15.2937931,7.76275862 15.3765517,7.53103448 15.3765517,7.24965517 C15.3931034,6.98482759 15.2937931,6.75310345 15.1117241,6.57103448 L15.1117241,6.57103448 Z M15.1117241,3.50896552 C14.9131034,3.31034483 14.6813793,3.21103448 14.4165517,3.21103448 L9.64965517,3.21103448 C9.38482759,3.21103448 9.15310345,3.31034483 8.97103448,3.49241379 L8.97103448,3.50896552 C8.77241379,3.69103448 8.67310345,3.9062069 8.67310345,4.18758621 C8.67310345,4.46896552 8.77241379,4.70068966 8.97103448,4.89931034 C9.16965517,5.08137931 9.40137931,5.16413793 9.6662069,5.16413793 L14.4331034,5.16413793 C14.697931,5.16413793 14.9131034,5.08137931 15.1117241,4.91586207 L15.1282759,4.89931034 C15.3103448,4.70068966 15.4096552,4.46896552 15.4096552,4.18758621 C15.3931034,3.9062069 15.2937931,3.69103448 15.1117241,3.50896552 L15.1117241,3.50896552 Z M14.4165517,2.10206897 C14.6813793,2.10206897 14.9131034,2.00275862 15.1117241,1.82068966 L15.1282759,1.80413793 C15.2937931,1.60551724 15.3765517,1.39034483 15.3765517,1.12551724 C15.3765517,0.860689655 15.2937931,0.628965517 15.1117241,0.446896552 C14.9131034,0.248275862 14.6813793,0.132413793 14.4165517,0.132413793 L11.2386207,0.132413793 C10.9572414,0.132413793 10.742069,0.231724138 10.5765517,0.430344828 L10.56,0.446896552 C10.3448276,0.628965517 10.2455172,0.844137931 10.2455172,1.12551724 C10.2455172,1.39034483 10.3613793,1.62206897 10.5765517,1.82068966 L10.5931034,1.83724138 C10.7586207,2.01931034 10.9737931,2.10206897 11.2551724,2.10206897 L14.4165517,2.10206897 L14.4165517,2.10206897 Z M30.057931,11.1062069 C30.057931,9.81517241 29.8427586,8.7062069 29.4124138,7.77931034 C28.9655172,6.85241379 28.3696552,6.14068966 27.6082759,5.66068966 C26.8137931,5.16413793 25.9034483,4.93241379 24.8606897,4.93241379 C23.9668966,4.93241379 23.222069,5.09793103 22.6262069,5.42896552 C22.0303448,5.74344828 21.4344828,6.19034483 20.8551724,6.80275862 L20.8551724,2.06896552 C20.8551724,1.48965517 20.7227586,1.04275862 20.4413793,0.744827586 C20.1931034,0.430344828 19.8124138,0.28137931 19.3324138,0.28137931 C18.8855172,0.28137931 18.537931,0.430344828 18.2731034,0.744827586 C18.0248276,1.07586207 17.9089655,1.55586207 17.9089655,2.16827586 L17.9089655,15.7737931 C17.9089655,16.3531034 18.0248276,16.8 18.2731034,17.1144828 C18.5544828,17.4124138 18.902069,17.5613793 19.3324138,17.5613793 C19.7793103,17.5613793 20.1268966,17.4124138 20.4082759,17.1144828 C20.7062069,16.8 20.8551724,16.3531034 20.8551724,15.7737931 L20.8551724,15.4427586 L21.6662069,16.3531034 L22.4275862,16.9324138 C22.7255172,17.097931 23.0896552,17.2468966 23.5034483,17.3627586 C23.9172414,17.4786207 24.3641379,17.5448276 24.8441379,17.5448276 C25.622069,17.5448276 26.3503448,17.3793103 27.0124138,17.0648276 C27.657931,16.7337931 28.2041379,16.2868966 28.6510345,15.7241379 C29.1144828,15.1448276 29.462069,14.4662069 29.6937931,13.6717241 C29.9255172,12.9103448 30.057931,12.0496552 30.057931,11.1062069 L30.057931,11.1062069 Z M26.5489655,9.08689655 C26.7972414,9.6662069 26.9296552,10.377931 26.9296552,11.1889655 C26.9296552,12.4468966 26.6482759,13.44 26.0855172,14.1351724 C25.5062069,14.7972414 24.8275862,15.1282759 24.0331034,15.1282759 C23.1227586,15.1282759 22.377931,14.7972414 21.8151724,14.1351724 C21.2524138,13.4731034 20.9710345,12.5131034 20.9710345,11.2717241 C20.9710345,10.4275862 21.1034483,9.71586207 21.3517241,9.10344828 C21.6331034,8.47448276 21.9972414,8.01103448 22.4606897,7.71310345 C22.9241379,7.38206897 23.4537931,7.21655172 24.0331034,7.21655172 C24.6124138,7.21655172 25.1255172,7.38206897 25.5558621,7.71310345 C25.9862069,8.02758621 26.3172414,8.49103448 26.5489655,9.08689655 L26.5489655,9.08689655 Z M43.1172414,7.63034483 C42.6868966,6.81931034 42.0413793,6.15724138 41.1972414,5.64413793 C40.32,5.11448276 39.2606897,4.84965517 38.0358621,4.84965517 C37.1089655,4.84965517 36.2648276,4.99862069 35.5034483,5.31310345 C34.7255172,5.59448276 34.08,6.02482759 33.5503448,6.58758621 C33.0206897,7.15034483 32.6234483,7.82896552 32.3586207,8.64 C32.0772414,9.41793103 31.9448276,10.262069 31.9448276,11.1889655 C31.9448276,13.1586207 32.4910345,14.697931 33.6,15.8234483 C34.7089655,16.9655172 36.2813793,17.5448276 38.2675862,17.5448276 C39.1448276,17.5448276 39.9227586,17.4289655 40.6013793,17.1972414 C41.2634483,16.9655172 41.8096552,16.6841379 42.2565517,16.3531034 C42.7034483,16.0055172 43.0344828,15.6413793 43.2496552,15.2772414 C43.4648276,14.88 43.5806897,14.5655172 43.5806897,14.2841379 C43.5806897,13.9531034 43.4813793,13.6882759 43.2827586,13.5227586 C43.0841379,13.3406897 42.8358621,13.257931 42.5213793,13.257931 C42.2068966,13.257931 41.9751724,13.3241379 41.8262069,13.4565517 L40.0882759,14.9462069 C39.8068966,15.1117241 39.5255172,15.2441379 39.2110345,15.36 C38.8965517,15.4262069 38.5489655,15.4758621 38.1848276,15.4758621 C37.622069,15.4758621 37.1089655,15.3434483 36.662069,15.062069 C36.1986207,14.7972414 35.817931,14.3834483 35.5531034,13.8372414 C35.2882759,13.2910345 35.1393103,12.662069 35.1227586,11.9668966 L41.2137931,11.9668966 C42.0413793,11.9668966 42.6703448,11.8510345 43.1172414,11.6193103 C43.5641379,11.3875862 43.7958621,10.8744828 43.7958621,10.0965517 C43.7958621,9.28551724 43.5641379,8.45793103 43.1172414,7.63034483 L43.1172414,7.63034483 Z M39.9062069,7.84551724 C40.4193103,8.37517241 40.7006897,9.16965517 40.7834483,10.2455172 L35.1227586,10.2455172 C35.2386207,9.1862069 35.5365517,8.39172414 36.0331034,7.84551724 C36.5462069,7.31586207 37.1751724,7.05103448 37.9531034,7.05103448 C38.7475862,7.05103448 39.4096552,7.31586207 39.9062069,7.84551724 L39.9062069,7.84551724 Z M51.7241379,7.05103448 C52.6510345,7.05103448 53.2634483,7.24965517 53.5613793,7.63034483 C53.8593103,7.99448276 54.0248276,8.59034483 54.057931,9.40137931 L48.7448276,10.6262069 C47.8013793,10.8413793 47.0731034,11.2551724 46.5268966,11.8510345 C45.9806897,12.4468966 45.7158621,13.1751724 45.7158621,14.0027586 C45.7158621,14.6482759 45.8813793,15.2441379 46.2124138,15.7903448 C46.5434483,16.32 47.0068966,16.7503448 47.6027586,17.0648276 C48.2151724,17.3793103 48.9103448,17.5448276 49.7048276,17.5448276 C50.582069,17.5448276 51.36,17.3958621 52.0717241,17.097931 C52.7668966,16.8165517 53.4951724,16.3696552 54.2565517,15.7903448 C54.6041379,16.3531034 54.9351724,16.7834483 55.2496552,17.097931 C55.5641379,17.3958621 55.8786207,17.5448276 56.1931034,17.5448276 C56.5737931,17.5448276 56.9213793,17.4124138 57.2193103,17.1310345 C57.5006897,16.8662069 57.6496552,16.5848276 57.6496552,16.2537931 L57.4013793,15.062069 C57.1862069,14.4165517 57.0703448,13.8041379 57.0703448,13.2248276 L57.1034483,9.6662069 C57.1034483,8.49103448 56.937931,7.56413793 56.6234483,6.88551724 C56.2924138,6.19034483 55.7296552,5.67724138 54.9517241,5.3462069 C54.1737931,5.01517241 53.097931,4.84965517 51.7075862,4.84965517 C50.4827586,4.84965517 49.4565517,5.01517241 48.6455172,5.36275862 C47.8344828,5.6937931 47.222069,6.10758621 46.8413793,6.62068966 C46.4441379,7.15034483 46.262069,7.68 46.262069,8.2262069 C46.262069,8.5737931 46.3944828,8.85517241 46.6427586,9.08689655 C46.8910345,9.30206897 47.2055172,9.41793103 47.5531034,9.41793103 C47.9337931,9.41793103 48.182069,9.35172414 48.3144828,9.21931034 L48.9268966,8.34206897 C49.2082759,7.89517241 49.5558621,7.56413793 49.9531034,7.34896552 C50.3668966,7.16689655 50.9462069,7.05103448 51.7241379,7.05103448 L51.7241379,7.05103448 Z M53.6275862,14.0524138 C53.3958621,14.4827586 53.0151724,14.8303448 52.4855172,15.0951724 C51.9558621,15.3765517 51.3931034,15.5089655 50.7641379,15.5089655 C50.2013793,15.5089655 49.737931,15.3434483 49.3737931,15.0124138 C49.0262069,14.6813793 48.8441379,14.2841379 48.8441379,13.8206897 C48.8441379,13.3572414 48.9931034,12.9931034 49.3075862,12.7448276 C49.6055172,12.48 49.92,12.3144828 50.2675862,12.2317241 L54.057931,11.2717241 L54.057931,11.7517241 C54.057931,12.8110345 53.9255172,13.5889655 53.6275862,14.0524138 L53.6275862,14.0524138 Z M77.8758621,9.50068966 C77.8758621,8.29241379 77.7434483,7.41517241 77.4951724,6.85241379 C77.1972414,6.22344828 76.7172414,5.76 76.1048276,5.42896552 C75.5089655,5.09793103 74.7806897,4.93241379 73.92,4.93241379 C73.1917241,4.93241379 72.5462069,5.08137931 71.9337931,5.39586207 C71.3213793,5.71034483 70.7586207,6.1737931 70.2289655,6.80275862 C69.8648276,6.1737931 69.3848276,5.71034483 68.822069,5.39586207 C68.2593103,5.08137931 67.5972414,4.93241379 66.8027586,4.93241379 C66.0413793,4.93241379 65.3627586,5.08137931 64.7503448,5.39586207 C64.1213793,5.67724138 63.542069,6.15724138 62.9958621,6.80275862 L62.9958621,6.50482759 C62.9958621,5.99172414 62.8634483,5.61103448 62.5986207,5.32965517 C62.3006897,5.03172414 61.9365517,4.88275862 61.5062069,4.88275862 C61.0758621,4.88275862 60.7282759,5.04827586 60.4634483,5.36275862 C60.182069,5.64413793 60.0496552,6.09103448 60.0496552,6.70344828 L60.0496552,15.6082759 C60.0496552,16.2537931 60.1986207,16.7337931 60.4965517,17.0648276 C60.8110345,17.3958621 61.1917241,17.5613793 61.6717241,17.5613793 C62.1517241,17.5613793 62.5489655,17.3958621 62.8468966,17.0648276 C63.1282759,16.7337931 63.2772414,16.2537931 63.2772414,15.6082759 L63.2772414,11.3710345 C63.2772414,10.0634483 63.4262069,9.07034483 63.7406897,8.35862069 C64.0717241,7.66344828 64.7503448,7.31586207 65.76,7.31586207 C66.2731034,7.31586207 66.6372414,7.46482759 66.8689655,7.76275862 C67.1172414,8.02758621 67.2662069,8.37517241 67.3158621,8.80551724 L67.3986207,15.6082759 C67.3986207,16.2537931 67.5475862,16.7337931 67.8455172,17.0648276 C68.1434483,17.3958621 68.5241379,17.5613793 68.9875862,17.5613793 C69.4675862,17.5613793 69.8648276,17.3958621 70.1793103,17.0648276 C70.4606897,16.7337931 70.6096552,16.2537931 70.6096552,15.6082759 L70.6096552,11.4703448 C70.6096552,10.1296552 70.7255172,9.1862069 70.9406897,8.67310345 C71.1558621,8.25931034 71.4537931,7.94482759 71.817931,7.71310345 C72.182069,7.46482759 72.5793103,7.33241379 72.9765517,7.33241379 C73.4896552,7.33241379 73.8703448,7.46482759 74.1186207,7.7462069 C74.3668966,8.02758621 74.5158621,8.37517241 74.582069,8.77241379 L74.6813793,15.6248276 C74.6813793,16.2703448 74.8303448,16.7503448 75.1117241,17.0813793 C75.4262069,17.4124138 75.8068966,17.577931 76.2868966,17.577931 C76.7834483,17.577931 77.1641379,17.4124138 77.462069,17.0813793 C77.76,16.7503448 77.8924138,16.2703448 77.8924138,15.6248276 L77.8924138,9.50068966 L77.8758621,9.50068966 Z M98.0027586,14.6151724 C97.6551724,14.2841379 97.257931,14.1186207 96.7944828,14.1186207 C96.297931,14.1186207 95.9006897,14.2841379 95.5696552,14.6151724 C95.2386207,14.9627586 95.0731034,15.36 95.0731034,15.8068966 C95.0731034,16.3696552 95.2386207,16.8 95.5862069,17.0813793 C95.9337931,17.3958621 96.3475862,17.5613793 96.8110345,17.5613793 C97.257931,17.5613793 97.6551724,17.3958621 98.0027586,17.0813793 C98.3337931,16.7668966 98.5158621,16.3365517 98.5158621,15.8068966 C98.4993103,15.3434483 98.3337931,14.9462069 98.0027586,14.6151724 L98.0027586,14.6151724 Z M91.4813793,7.63034483 C91.0510345,6.81931034 90.4055172,6.15724138 89.5613793,5.64413793 C88.6841379,5.11448276 87.6413793,4.84965517 86.4165517,4.84965517 C85.4731034,4.84965517 84.6289655,4.99862069 83.8675862,5.31310345 C83.0896552,5.59448276 82.4441379,6.02482759 81.9144828,6.58758621 C81.4013793,7.15034483 81.0041379,7.82896552 80.7227586,8.64 C80.4413793,9.41793103 80.3089655,10.262069 80.3089655,11.1889655 C80.3089655,13.1586207 80.8717241,14.697931 81.9806897,15.8234483 C83.0896552,16.9655172 84.6455172,17.5448276 86.6482759,17.5448276 C87.5255172,17.5448276 88.3034483,17.4289655 88.982069,17.1972414 C89.6441379,16.9655172 90.2068966,16.6841379 90.6537931,16.3531034 C91.1006897,16.0055172 91.4317241,15.6413793 91.6468966,15.2772414 C91.862069,14.88 91.977931,14.5655172 91.977931,14.2841379 C91.977931,13.9531034 91.8786207,13.6882759 91.68,13.5227586 C91.4813793,13.3406897 91.2331034,13.257931 90.9186207,13.257931 C90.6041379,13.257931 90.3724138,13.3241379 90.2234483,13.4565517 L88.4855172,14.9462069 C88.2041379,15.1117241 87.9227586,15.2441379 87.6082759,15.36 C87.3103448,15.4262069 86.9627586,15.4758621 86.582069,15.4758621 C86.0193103,15.4758621 85.5062069,15.3434483 85.0593103,15.062069 C84.5958621,14.7972414 84.2151724,14.3834483 83.9503448,13.8372414 C83.6689655,13.2910345 83.52,12.662069 83.5034483,11.9668966 L89.6110345,11.9668966 C90.422069,11.9668966 91.0510345,11.8510345 91.497931,11.6193103 C91.9448276,11.3875862 92.1765517,10.8744828 92.1765517,10.0965517 C92.1434483,9.28551724 91.9282759,8.45793103 91.4813793,7.63034483 L91.4813793,7.63034483 Z M83.4703448,10.2289655 C83.5862069,9.16965517 83.9006897,8.37517241 84.3806897,7.82896552 C84.8937931,7.29931034 85.5227586,7.03448276 86.3006897,7.03448276 C87.0951724,7.03448276 87.7572414,7.29931034 88.2537931,7.82896552 C88.7668966,8.35862069 89.0482759,9.15310345 89.1310345,10.2289655 L83.4703448,10.2289655 L83.4703448,10.2289655 Z M103.58069,4.89931034 C103.117241,4.89931034 102.736552,5.06482759 102.471724,5.37931034 C102.190345,5.67724138 102.041379,6.15724138 102.041379,6.76965517 L102.041379,15.657931 C102.041379,16.2703448 102.190345,16.7337931 102.471724,17.0648276 C102.753103,17.3958621 103.117241,17.5613793 103.58069,17.5613793 C104.027586,17.5613793 104.391724,17.3958621 104.689655,17.0648276 C105.004138,16.7503448 105.169655,16.2868966 105.169655,15.657931 L105.169655,6.67034483 C105.169655,6.10758621 105.004138,5.66068966 104.689655,5.36275862 C104.391724,5.04827586 104.027586,4.89931034 103.58069,4.89931034 L103.58069,4.89931034 Z M105.169655,1.92 C105.169655,1.44 105.004138,1.05931034 104.689655,0.811034483 C104.375172,0.529655172 104.027586,0.397241379 103.613793,0.397241379 C103.2,0.397241379 102.835862,0.546206897 102.504828,0.844137931 C102.190345,1.12551724 102.041379,1.48965517 102.041379,1.92 C102.041379,2.4 102.190345,2.78068966 102.504828,3.06206897 C102.81931,3.34344828 103.183448,3.47586207 103.613793,3.47586207 C104.011034,3.47586207 104.375172,3.34344828 104.689655,3.06206897 C105.004138,2.78068966 105.169655,2.4 105.169655,1.92 L105.169655,1.92 Z M118.328276,6.63724138 C117.782069,6.07448276 117.12,5.64413793 116.342069,5.36275862 C115.58069,5.04827586 114.736552,4.88275862 113.776552,4.88275862 C112.866207,4.88275862 112.005517,5.04827586 111.227586,5.36275862 C110.466207,5.64413793 109.82069,6.07448276 109.274483,6.63724138 C108.728276,7.18344828 108.331034,7.84551724 108.066207,8.62344828 C107.768276,9.41793103 107.61931,10.2786207 107.61931,11.2055172 C107.61931,12.1489655 107.768276,12.9931034 108.066207,13.7710345 C108.331034,14.5324138 108.744828,15.2110345 109.307586,15.7903448 C109.853793,16.3531034 110.49931,16.7834483 111.227586,17.0648276 C111.988966,17.3793103 112.833103,17.5448276 113.776552,17.5448276 C114.736552,17.5448276 115.58069,17.3958621 116.342069,17.097931 C117.103448,16.7834483 117.748966,16.3531034 118.295172,15.7903448 C118.857931,15.2275862 119.288276,14.5489655 119.553103,13.7710345 C119.834483,12.9931034 119.983448,12.1489655 119.983448,11.2055172 C119.983448,10.2786207 119.851034,9.41793103 119.569655,8.64 C119.288276,7.87862069 118.874483,7.21655172 118.328276,6.63724138 L118.328276,6.63724138 Z M116.855172,11.222069 C116.855172,12.4634483 116.573793,13.4565517 116.027586,14.1682759 C115.464828,14.8634483 114.703448,15.2110345 113.76,15.2110345 C113.131034,15.2110345 112.601379,15.062069 112.154483,14.7475862 C111.691034,14.4165517 111.343448,13.9531034 111.111724,13.3406897 C110.863448,12.7448276 110.747586,12.0331034 110.747586,11.2055172 C110.747586,10.377931 110.863448,9.6662069 111.111724,9.0537931 C111.376552,8.44137931 111.724138,7.97793103 112.154483,7.64689655 C112.634483,7.34896552 113.164138,7.18344828 113.76,7.18344828 C114.72,7.18344828 115.464828,7.53103448 116.027586,8.2262069 C116.590345,8.97103448 116.855172,9.96413793 116.855172,11.222069 Z" id="Layer0_0_FILL"></path>
        </g>
    </g>
</svg>