<?xml version="1.0" encoding="UTF-8" standalone="no"?>
<svg width="82px" height="82px" viewBox="0 0 82 82" version="1.1" xmlns="http://www.w3.org/2000/svg" xmlns:xlink="http://www.w3.org/1999/xlink">
    <!-- Generator: Sketch 39.1 (31720) - http://www.bohemiancoding.com/sketch -->
    <title>Slice 1</title>
    <desc>Created with Sketch.</desc>
    <defs></defs>
    <g id="Page-1" stroke="none" stroke-width="1" fill="none" fill-rule="evenodd">
        <g id="Group" transform="translate(1.000000, 0.637820)" fill="#7030A0">
            <path d="M40,0.36218 C17.93227,0.36218 -1.99999988e-07,18.29448 -1.99999988e-07,40.3622 C-1.99999988e-07,62.4299 17.93227,80.3622 40,80.3622 C62.0677,80.3622 80,62.4299 80,40.3622 C80,18.29448 62.0677,0.36218 40,0.36218 L40,0.36218 Z M40,4.36218 C59.9059,4.36218 76,20.45628 76,40.3622 C76,60.2681 59.9059,76.3622 40,76.3622 C20.09403,76.3622 4,60.2681 4,40.3622 C4,20.45628 20.09403,4.36218 40,4.36218 L40,4.36218 Z M62.9375,24.36218 C62.4216,24.38218 61.917,24.61188 61.5625,24.98718 C51.6912,34.96588 42.4936,45.761 32.8125,55.6747 L18.25,43.8935 C17.43188,43.2308 16.10018,43.3878 15.4375,44.206 C14.77482,45.0241 14.90063,46.3558 15.71875,47.0185 L31.71875,59.9247 C32.47663,60.5517 33.70984,60.4943 34.40625,59.7997 C44.7045,49.3897 54.26,38.0564 64.4062,27.79968 C65.773,26.12858 64.5949,24.37878 62.9375,24.36218 L62.9375,24.36218 Z" id="Shape"></path>
        </g>
    </g>
</svg>