<svg xmlns="http://www.w3.org/2000/svg" xmlns:xlink="http://www.w3.org/1999/xlink" width="155" height="21" viewBox="0 0 160 22">
    <path fill="#444" d="M0 20.3q0 .45.4.85.3.4.85.4h17.35q.65 0 .95-.4.35-.4.35-.85 0-.55-.35-.9-.3-.4-.95-.4h-17.35q-.55 0-.85.4-.4.35-.4.9m4.15-3.05q.3.4.85.4h13.45q.55 0 .95-.4.35-.4.35-.9 0-.55-.35-.85-.4-.4-.95-.4h-13.45q-.55 0-.85.4-.4.3-.4.85 0 .5.4.9m15.45-5.45q-.35-.35-.9-.35h-15.8q-.45 0-.8.35-.4.3-.4.85t.4.9q.35.35.8.35h15.8q.55 0 .9-.35.4-.35.4-.9t-.4-.85m-.15-3.65q-.35-.4-.85-.4h-13.45q-.55 0-.85.4-.4.3-.4.85 0 .5.4.9.3.3.85.3h13.45q.5 0 .85-.3.3-.4.3-.9 0-.55-.3-.85m.3-3.6q-.3-.45-.85-.45h-6.2q-.5 0-.9.45-.3.3-.3.85 0 .5.3.8.4.4.9.4h6.2q.55 0 .85-.4.4-.3.4-.8 0-.55-.4-.85m-.2-3.9q-.3-.4-.95-.4h-4.1q-.5 0-.85.4-.3.3-.3.8 0 .55.3.85.35.4.85.4h4.1q.65 0 .95-.4.35-.3.35-.85 0-.5-.35-.8m22.05 16.3q.35-1.45.35-3.25 0-2.45-.75-4.2-.85-1.75-2.3-2.65-1.55-.95-3.45-.95-1.7 0-2.8.55-1.25.7-2.25 1.75v-5.9q0-1.05-.55-1.75-.45-.55-1.35-.55-.95 0-1.3.65-.6.6-.6 1.8v17.1q0 1.15.6 1.65.45.55 1.3.55.85 0 1.3-.55.6-.5.6-1.65v-.4q.6.75 1 1.15.4.4.9.7.65.4 1.4.55.75.2 1.7.2 1.5 0 2.65-.55 1.3-.6 2.15-1.75.85-1 1.4-2.5m-5.3-7.6q.85.7 1.3 1.75.4 1.15.4 2.7 0 2.35-1.1 3.75-1 1.25-2.5 1.25-1.7 0-2.75-1.25-1.15-1.3-1.15-3.65 0-1.55.5-2.8.5-1.05 1.4-1.75.9-.55 2-.55 1.15 0 1.9.55m19.65-2.6q-1.6-.9-3.95-.9-1.75 0-3.15.5-1.55.65-2.45 1.7-1 1.1-1.55 2.55-.45 1.5-.45 3.2 0 3.75 2 5.8 2.15 2.15 5.9 2.15 1.75 0 3-.35 1.3-.5 2.05-1.1.9-.7 1.3-1.35.4-.7.4-1.25 0-.6-.3-.9-.4-.4-1-.4-.65 0-.95.3-.65.7-1.15 1-.45.45-1 .85-.6.3-1.15.45-.5.25-1.3.25-1.05 0-1.9-.65-.9-.45-1.35-1.45-.55-1.05-.55-2.45h7.65q1.55 0 2.35-.35.85-.45.85-1.95t-.75-3.1q-.85-1.55-2.55-2.55m-3.95 1.75q1.45 0 2.45 1.1.9 1 1.05 2.95h-7.1q.15-1.95 1.15-2.95.9-1.1 2.45-1.1m23.5-.15q-.7-1.3-2.15-1.9-1.4-.6-4.05-.6-2.3 0-3.85.6-1.5.7-2.3 1.6-.65 1-.65 2 0 .7.45 1.05.55.5 1.15.5.7 0 .9-.35.25-.2.75-1.05.55-.85 1.4-1.2.7-.5 2.15-.5 1.75 0 2.35.8.5.75.55 2.3-1.2.35-2.2.5-1.1.3-2.6.65-1.45.3-1.85.35-1.75.4-2.85 1.55-1 1.05-1 2.75 0 1.15.7 2.15.55 1.05 1.75 1.65 1.1.55 2.6.55 1.65 0 3-.45 1.3-.6 2.75-1.75.6 1.15 1.25 1.65.6.55 1.15.55.65 0 1.35-.35.55-.55.55-1.15 0-.4-.3-1.65-.45-1.15-.45-2.25 0-1.15.05-2.15v-2.3q0-2.15-.6-3.55m-8.05 6.75q.7-.15 2.3-.45 1.6-.4 2.45-.75v.6q0 2.05-.45 2.9-.55.85-1.55 1.3-1 .55-2.05.55-1.1 0-1.85-.7-.6-.6-.6-1.45t.55-1.4q.6-.45 1.2-.6m34.75-3.45q0-2.3-.45-3.35-.55-1.15-1.7-1.75-1.2-.65-2.75-.65-1.45 0-2.6.55-1.05.6-2.05 1.75-.75-1.15-1.75-1.75-1.15-.55-2.6-.55-1.4 0-2.55.55-1.15.6-2.2 1.75v-.3q0-.9-.5-1.55-.6-.5-1.35-.5-.85 0-1.4.6-.5.55-.5 1.7v11.15q0 1.25.6 1.9.6.55 1.45.55.9 0 1.45-.55.55-.65.55-1.9v-5.25q0-2.45.6-3.85.6-1.3 2.6-1.3.9 0 1.4.55.45.5.5 1.35.1.85.1 2.25v6.25q0 1.25.6 1.9.55.55 1.4.55.9 0 1.5-.55.55-.65.55-1.9v-5.2q0-2.45.45-3.5.3-.8 1-1.25.75-.45 1.55-.45.9 0 1.35.55.55.5.7 1.3.1.75.1 2v6.55q0 1.25.5 1.9.55.55 1.45.55.95 0 1.5-.55.5-.65.5-1.9v-7.65m14.8-4.9q-1.6-.9-4-.9-1.75 0-3.2.5-1.45.65-2.4 1.7-1.05 1.1-1.5 2.55-.55 1.5-.55 3.2 0 3.75 2.05 5.8 2.15 2.15 5.9 2.15 1.7 0 3-.35 1.2-.5 2-1.1.85-.7 1.3-1.35.35-.7.35-1.25 0-.6-.3-.9-.35-.4-1-.4-.5 0-.8.3-.7.7-1.25 1-.4.45-1 .85-.55.3-1.15.45-.55.25-1.2.25-1.1 0-1.95-.65-.9-.45-1.45-1.45-.45-1.05-.5-2.45h7.7q1.45 0 2.3-.35.85-.45.85-1.95t-.75-3.1q-.85-1.55-2.45-2.55m-4.05 1.75q1.45 0 2.45 1.1.95 1 1.05 2.95h-7.1q.2-1.95 1.2-2.95.9-1.1 2.4-1.1m15.35 11.1q0-.9-.65-1.5-.65-.65-1.55-.65t-1.55.65q-.6.6-.6 1.5 0 1 .7 1.6.6.55 1.5.55.85 0 1.5-.55.65-.6.65-1.6m8.35-11.45q0-1.1-.55-1.7-.6-.6-1.45-.6-.8 0-1.45.6-.45.6-.45 1.75v11.25q0 1.1.45 1.75.65.55 1.45.55.85 0 1.45-.55.55-.65.55-1.75v-11.3m-.55-7.5q-.6-.5-1.35-.5-.75 0-1.45.55-.55.55-.55 1.4 0 .9.55 1.45.6.45 1.45.45.75 0 1.35-.45.55-.55.55-1.45 0-.95-.55-1.45m18.8 9.95q-.65-1.45-1.65-2.55-1.05-1.05-2.45-1.6-1.45-.6-3.25-.6t-3.15.6q-1.45.55-2.55 1.6-1 1.1-1.5 2.55-.55 1.5-.55 3.3 0 1.75.55 3.1.5 1.55 1.5 2.55 1.1 1.05 2.55 1.65 1.35.55 3.15.55 1.9 0 3.25-.55 1.4-.5 2.45-1.6 1-1.05 1.65-2.6.5-1.35.5-3.1 0-1.8-.5-3.3m-7.35-1.85q1.8 0 2.8 1.3 1.1 1.4 1.1 3.85 0 2.25-1.1 3.65-1 1.3-2.8 1.3-1.1 0-2-.55-.85-.6-1.3-1.75-.55-1.2-.55-2.65 0-1.65.55-2.8.45-1.15 1.35-1.75.85-.6 1.95-.6z" />
</svg>
