<svg xmlns="http://www.w3.org/2000/svg" viewBox="0 0 110 61" enable-background="new 0 0 110 61">    <style type="text/css">.st0{fill:none;stroke:#444444;stroke-width:6;stroke-linecap:round;stroke-linejoin:round;}    </style>    <path d="M102 20.8c-.6-.6-1.3-1.1-2.1-1.6-2.6-1.6-5.6-2.4-9-2.4-2.9 0-5.4.5-7.3 1.6-2 1-3.9 2.5-5.8 4.5v-16c0-1.9-.4-3.4-1.3-4.3-.5-.6-1.2-1.1-2-1.3-.5-.2-1-.2-1.6-.2-1.5 0-2.7.5-3.5 1.5-.4.6-.8 1.3-1 2.1-.2.8-.3 1.6-.3 2.6v45.2c0 1.9.4 3.4 1.2 4.4.9 1 2.1 1.4 3.5 1.4s2.6-.5 3.5-1.4c1-1 1.5-2.5 1.5-4.4v-1l2.7 3 2.5 2c1 .6 2.1 1 3.5 1.4 1.4.4 2.8.6 4.4.6 2.5 0 4.9-.5 7.1-1.6 1.5-.8 2.9-1.7 4.1-2.9.5-.5.9-1 1.3-1.5 1.5-1.9 2.7-4.2 3.4-6.7.3-.9.5-1.8.7-2.8.3-1.8.5-3.7.5-5.7 0-2.1-.2-4.1-.5-6-.3-1.8-.9-3.4-1.6-5-1-2.3-2.4-4.1-3.9-5.5m-4.3 16.6c0 4.1-.9 7.4-2.8 9.7-1.9 2.2-4.2 3.2-6.7 3.2-3 0-5.4-1.1-7.3-3.2-1.8-2.2-2.8-5.3-2.8-9.4 0-2.7.4-5.1 1.2-7.1.9-2 2.1-3.6 3.6-4.6 1.5-1.1 3.2-1.6 5.2-1.6 1.9 0 3.6.5 5 1.6 1.4 1 2.5 2.5 3.2 4.5 1 1.8 1.4 4.1 1.4 6.9z"          fill="#444444"          id="Layer0_0_FILL"/>    <path id="Layer0_0_1_STROKES" class="st0"          d="M59.4 4.4h-12.7m12.8 10.5h-19.1m19.1 10.5h-41.4m41.4 10.5h-48.5m48.5 10.5h-42.2m42.2 10.5h-54.5"/></svg>