<?xml version="1.0" encoding="UTF-8" standalone="no"?>
<svg width="53px" height="51px" viewBox="0 0 53 51" version="1.1" xmlns="http://www.w3.org/2000/svg" xmlns:xlink="http://www.w3.org/1999/xlink">
    <!-- Generator: Sketch 3.8.3 (29802) - http://www.bohemiancoding.com/sketch -->
    <title>Slice 1</title>
    <desc>Created with Sketch.</desc>
    <defs></defs>
    <g id="Page-1" stroke="none" stroke-width="1" fill="none" fill-rule="evenodd">
        <g id="Group" fill="#FFFFFF">
            <path d="M11.041,38.054 L2.959,38.054 C1.327,38.054 0,36.727 0,35.095 L0,15.013 C0,13.381 1.327,12.054 2.959,12.054 L11.041,12.054 C12.673,12.054 14,13.381 14,15.013 L14,35.095 C14,36.727 12.673,38.054 11.041,38.054 L11.041,38.054 Z M4,34.054 L10,34.054 L10,16.054 L4,16.054 L4,34.054 L4,34.054 Z" id="Shape"></path>
            <path d="M27.035,50.002 C26.372,50.002 25.717,49.775 25.175,49.335 L10.739,37.605 L13.26,34.501 L26,44.852 L26,5.256 L13.261,15.606 L10.74,12.502 L25.177,0.773 C26.071,0.046 27.274,-0.098 28.314,0.397 C29.354,0.892 30,1.915 30,3.068 L30,47.039 C30,48.192 29.354,49.216 28.312,49.711 C27.902,49.906 27.467,50.002 27.035,50.002 L27.035,50.002 Z" id="Shape"></path>
            <g transform="translate(35.000000, 16.000000)" id="Shape">
                <path d="M2.5,17.5 C1.988,17.5 1.477,17.305 1.086,16.914 C0.305,16.133 0.305,14.867 1.086,14.086 L14.586,0.586 C15.367,-0.195 16.633,-0.195 17.414,0.586 C18.195,1.367 18.195,2.633 17.414,3.414 L3.914,16.914 C3.523,17.305 3.012,17.5 2.5,17.5 L2.5,17.5 Z"></path>
                <path d="M16,17.5 C15.488,17.5 14.977,17.305 14.586,16.914 L1.086,3.414 C0.305,2.633 0.305,1.367 1.086,0.586 C1.867,-0.195 3.133,-0.195 3.914,0.586 L17.414,14.086 C18.195,14.867 18.195,16.133 17.414,16.914 C17.023,17.305 16.512,17.5 16,17.5 L16,17.5 Z"></path>
            </g>
        </g>
    </g>
</svg>