<?xml version="1.0" encoding="UTF-8" standalone="no"?>
<svg width="61px" height="51px" viewBox="0 0 61 51" version="1.1" xmlns="http://www.w3.org/2000/svg" xmlns:xlink="http://www.w3.org/1999/xlink">
    <!-- Generator: Sketch 3.8.3 (29802) - http://www.bohemiancoding.com/sketch -->
    <title>Slice 1</title>
    <desc>Created with Sketch.</desc>
    <defs></defs>
    <g id="Page-1" stroke="none" stroke-width="1" fill="none" fill-rule="evenodd">
        <g id="noun_133989_cc" fill="#FFFFFF">
            <path d="M11.042,38.054 L2.959,38.054 C1.327,38.054 0,36.727 0,35.095 L0,15.013 C0,13.381 1.327,12.054 2.958,12.054 L11.041,12.054 C12.672,12.054 13.999,13.381 13.999,15.013 L13.999,35.095 C14,36.727 12.673,38.054 11.042,38.054 L11.042,38.054 Z M4,34.054 L10,34.054 L10,16.054 L4,16.054 L4,34.054 L4,34.054 Z" id="Shape"></path>
            <path d="M27.035,50.002 C26.371,50.002 25.717,49.775 25.175,49.335 L10.739,37.605 L13.261,34.501 L26,44.852 L26,5.256 L13.261,15.606 L10.739,12.502 L25.176,0.773 C26.07,0.046 27.272,-0.098 28.313,0.397 C29.354,0.892 30,1.915 30,3.068 L30,47.039 C30,48.192 29.354,49.216 28.312,49.711 C27.902,49.906 27.467,50.002 27.035,50.002 L27.035,50.002 Z" id="Shape"></path>
            <path d="M35.078,38.043 L32.922,34.674 C36.054,32.668 38,28.77 38,24.5 C38,20.479 36.22,16.693 33.354,14.62 L35.698,11.38 C39.645,14.234 42,19.139 42,24.5 C42,30.12 39.348,35.31 35.078,38.043 L35.078,38.043 Z" id="Shape"></path>
            <path d="M43.084,42.039 L40.916,38.678 C45.286,35.86 48,30.404 48,24.438 C48,18.737 45.579,13.57 41.523,10.616 L43.878,7.384 C48.964,11.088 52,17.464 52,24.438 C52,31.749 48.584,38.493 43.084,42.039 L43.084,42.039 Z" id="Shape"></path>
            <path d="M52.259,45.913 L49.741,42.804 C54.219,39.18 57,32.119 57,24.377 C57,17.085 54.452,10.226 50.352,6.476 L53.051,3.525 C58.028,8.075 61,15.871 61,24.377 C61,33.296 57.65,41.548 52.259,45.913 L52.259,45.913 Z" id="Shape"></path>
        </g>
    </g>
</svg>