<?xml version="1.0" encoding="UTF-8" standalone="no"?>
<svg width="81px" height="81px" viewBox="0 0 81 81" version="1.1" xmlns="http://www.w3.org/2000/svg" xmlns:xlink="http://www.w3.org/1999/xlink">
    <!-- Generator: Sketch 40.3 (33839) - http://www.bohemiancoding.com/sketch -->
    <title>Slice 1</title>
    <desc>Created with Sketch.</desc>
    <defs></defs>
    <g id="Page-1" stroke="none" stroke-width="1" fill="none" fill-rule="evenodd">
        <path d="M68.2354557,41.2334224 L59.4773608,41.2334224 C59.1697371,41.2334224 58.9210793,40.8546972 58.9210793,40.3861625 C58.9210793,39.9176278 59.1697371,39.5389027 59.4773608,39.5389027 L68.2354557,39.5389027 C68.5430794,39.5389027 68.7917372,39.9176278 68.7917372,40.3861625 C68.7917372,40.8546972 68.5430794,41.2334224 68.2354557,41.2334224 L68.2354557,41.2334224 Z M33.3576193,33.717231 L23.1662929,33.717231 C23.0887806,33.717231 23.0257372,33.7813079 23.0257372,33.8598538 L23.0257372,47.9609041 C23.0257372,48.0384165 23.0887806,48.1024934 23.1662929,48.1024934 L33.3576193,48.1024934 C33.5818884,48.1024934 33.8009901,48.1758717 33.9808188,48.31126 L50.0527502,60.4393621 L50.0527502,21.3793288 L33.9808188,33.5084644 C33.8009901,33.6438527 33.5818884,33.717231 33.3576193,33.717231 L33.3576193,33.717231 Z M40.2334833,0.729 C18.1424579,0.729 0.234,18.6374579 0.234,40.7284833 C0.234,62.8205421 18.1424579,80.729 40.2334833,80.729 C62.3255421,80.729 80.234,62.8205421 80.234,40.7284833 C80.234,18.6384914 62.3255421,0.729 40.2334833,0.729 L40.2334833,0.729 Z M52.1197468,62.5146266 C52.1197468,62.9063225 51.8975446,63.2649464 51.5471887,63.4406411 C51.400432,63.5129859 51.2433402,63.5481249 51.0862485,63.5481249 C50.8650799,63.5481249 50.6459782,63.477847 50.4630491,63.3393582 L33.0113974,50.1684564 L23.1662929,50.1684564 C21.948832,50.1684564 20.9587407,49.1773315 20.9587407,47.9598706 L20.9587407,33.8598538 C20.9587407,32.6413593 21.948832,31.6502345 23.1662929,31.6502345 L33.0113974,31.6502345 L50.4630491,18.4793327 C50.776199,18.2426616 51.1957993,18.2044221 51.5471887,18.3790833 C51.8975446,18.5537445 52.1197468,18.9123684 52.1197468,19.3040643 L52.1197468,62.5146266 L52.1197468,62.5146266 Z M67.8377145,47.874245 C67.8048939,47.874245 67.7704045,47.8700087 67.7364713,47.8598416 L59.1291286,45.4434565 C58.8270678,45.3587305 58.6273627,44.9173082 58.6824346,44.4563988 C58.7380627,43.997184 59.0256602,43.6879341 59.3310588,43.7768964 L67.9384015,46.1932815 C68.2404623,46.2780075 68.4401673,46.7194298 68.3839829,47.1803392 C68.3355864,47.5887184 68.1019482,47.874245 67.8377145,47.874245 L67.8377145,47.874245 Z M66.9243004,54.7116319 C66.8364079,55.0386742 66.6289149,55.2352385 66.4102963,55.2352385 C66.3396486,55.2352385 66.2678883,55.2149043 66.1983531,55.1708467 L58.1222592,50.0923713 C57.8374431,49.9144467 57.702823,49.4187997 57.8201984,48.9858499 C57.9375737,48.5520529 58.2646672,48.3478632 58.5472582,48.5266351 L66.6233521,53.6051106 C66.9064994,53.7838824 67.0411195,54.2786821 66.9243004,54.7116319 L66.9243004,54.7116319 Z M58.1233718,30.6875791 L66.1983531,25.6023256 C66.4820566,25.4252483 66.806925,25.6285906 66.9243004,26.0615404 C67.0416758,26.4944902 66.9070557,26.9892899 66.6233521,27.168909 L58.5483708,32.2541626 C58.4788356,32.2973728 58.4070753,32.3185543 58.3364275,32.3185543 C58.1178089,32.3185543 57.910316,32.1211428 57.8224235,31.7949477 C57.7050481,31.361998 57.8396682,30.866351 58.1233718,30.6875791 L58.1233718,30.6875791 Z M68.3845392,33.5919859 C68.4412799,34.0528952 68.2410186,34.4943176 67.9389577,34.5790436 L59.331615,36.9945814 C59.2965693,37.0047485 59.2631924,37.0089848 59.2292593,37.0089848 C58.9661381,37.0089848 58.7324999,36.7234582 58.6829909,36.3159263 C58.6273627,35.8550169 58.8276241,35.4135945 59.1296849,35.3288685 L67.7370276,32.9133307 C68.0440949,32.8243685 68.328911,33.132771 68.3845392,33.5919859 L68.3845392,33.5919859 Z" id="Shape" fill="#9F5FD0"></path>
    </g>
</svg>