<?xml version="1.0" encoding="UTF-8" standalone="no"?>
<svg width="81px" height="81px" viewBox="0 0 81 81" version="1.1" xmlns="http://www.w3.org/2000/svg" xmlns:xlink="http://www.w3.org/1999/xlink">
    <!-- Generator: Sketch 40.3 (33839) - http://www.bohemiancoding.com/sketch -->
    <title>Slice 1</title>
    <desc>Created with Sketch.</desc>
    <defs></defs>
    <g id="Page-1" stroke="none" stroke-width="1" fill="none" fill-rule="evenodd">
        <path d="M33.3576193,33.717231 L23.1662929,33.717231 C23.0887806,33.717231 23.0257372,33.7813079 23.0257372,33.8598538 L23.0257372,47.9609041 C23.0257372,48.0384165 23.0887806,48.1024934 23.1662929,48.1024934 L33.3576193,48.1024934 C33.5818884,48.1024934 33.8009901,48.1758717 33.9808188,48.31126 L50.0527502,60.4393621 L50.0527502,21.3793288 L33.9808188,33.5084644 C33.8009901,33.6438527 33.5818884,33.717231 33.3576193,33.717231 L33.3576193,33.717231 Z M40.2334833,0.729 C18.1424579,0.729 0.234,18.6374579 0.234,40.7284833 C0.234,62.8205421 18.1424579,80.729 40.2334833,80.729 C62.3255421,80.729 80.234,62.8205421 80.234,40.7284833 C80.234,18.6384914 62.3255421,0.729 40.2334833,0.729 L40.2334833,0.729 Z M52.1197468,62.5146266 C52.1197468,62.9063225 51.8975446,63.2649464 51.5471887,63.4406411 C51.400432,63.5129859 51.2433402,63.5481249 51.0862485,63.5481249 C50.8650799,63.5481249 50.6459782,63.477847 50.4630491,63.3393582 L33.0113974,50.1684564 L23.1662929,50.1684564 C21.948832,50.1684564 20.9587407,49.1773315 20.9587407,47.9598706 L20.9587407,33.8598538 C20.9587407,32.6413593 21.948832,31.6502345 23.1662929,31.6502345 L33.0113974,31.6502345 L50.4630491,18.4793327 C50.776199,18.2426616 51.1957993,18.2044221 51.5471887,18.3790833 C51.8975446,18.5537445 52.1197468,18.9123684 52.1197468,19.3040643 L52.1197468,62.5146266 L52.1197468,62.5146266 Z" id="Shape" fill="#9F5FD0"></path>
    </g>
</svg>